<svg id="visual" viewBox="0 0 900 600" width="900" height="600" xmlns="http://www.w3.org/2000/svg" xmlns:xlink="http://www.w3.org/1999/xlink" version="1.1"><path d="M0 492L21.5 498.2C43 504.3 86 516.7 128.8 517.3C171.7 518 214.3 507 257.2 500.2C300 493.3 343 490.7 385.8 499.3C428.7 508 471.3 528 514.2 538.5C557 549 600 550 642.8 549.5C685.7 549 728.3 547 771.2 534C814 521 857 497 878.5 485L900 473L900 601L878.5 601C857 601 814 601 771.2 601C728.3 601 685.7 601 642.8 601C600 601 557 601 514.2 601C471.3 601 428.7 601 385.8 601C343 601 300 601 257.2 601C214.3 601 171.7 601 128.8 601C86 601 43 601 21.5 601L0 601Z" fill="#2a2d30" stroke-linecap="round" stroke-linejoin="miter"></path></svg>